<?xml version="1.0" standalone="no"?>
<!DOCTYPE svg PUBLIC "-//W3C//DTD SVG 20010904//EN"
 "http://www.w3.org/TR/2001/REC-SVG-20010904/DTD/svg10.dtd">
<svg version="1.0" xmlns="http://www.w3.org/2000/svg" 
 width="512.000000pt" height="512.000000pt" viewBox="0 0 512.000000 512.000000"
 preserveAspectRatio="xMidYMid meet">

<g transform="translate(0.000000,512.000000) scale(0.100000,-0.100000)"
fill="#FFFFFF" stroke="none">
<path d="M490 5111 c-69 -21 -121 -65 -156 -131 -18 -34 -19 -112 -19 -2420
l0 -2385 22 -40 c56 -105 184 -160 288 -123 61 22 4065 2336 4103 2372 54 50
76 101 76 176 0 75 -22 126 -76 176 -38 36 -4040 2348 -4101 2370 -43 15 -97
17 -137 5z m2050 -1470 c1020 -589 1855 -1076 1855 -1081 0 -7 -3612 -2101
-3737 -2166 l-28 -15 0 2181 0 2181 28 -15 c15 -8 862 -496 1882 -1085z"/>
</g>
</svg>