<?xml version="1.0" standalone="no"?>
<!DOCTYPE svg PUBLIC "-//W3C//DTD SVG 20010904//EN"
 "http://www.w3.org/TR/2001/REC-SVG-20010904/DTD/svg10.dtd">
<svg version="1.0" xmlns="http://www.w3.org/2000/svg"
 width="512.000000pt" height="512.000000pt" viewBox="0 0 512.000000 512.000000"
 preserveAspectRatio="xMidYMid meet">

<g transform="translate(0.000000,512.000000) scale(0.100000,-0.100000)"
fill="#000000" stroke="none">
<path d="M740 5107 c-13 -7 -35 -28 -47 -46 l-23 -34 0 -2467 0 -2467 23 -34
c50 -74 109 -78 204 -12 760 519 3488 2405 3513 2430 31 29 35 39 35 83 0 44
-4 54 -35 83 -41 40 -3541 2454 -3577 2468 -33 12 -63 11 -93 -4z m1780 -1447
c874 -602 1589 -1097 1589 -1100 0 -6 -3173 -2193 -3189 -2198 -7 -3 -10 722
-10 2198 0 1476 3 2201 10 2198 6 -2 725 -496 1600 -1098z"/>
</g>
</svg>
