<svg width="48" height="48" viewBox="0 0 48 48" fill="none" xmlns="http://www.w3.org/2000/svg">
<path d="M20.1522 6.32622C20.272 5.00876 21.3766 4 22.6994 4H25.3006C26.6234 4 27.728 5.00876 27.8478 6.32622C27.9462 7.40784 28.7246 8.29086 29.7416 8.672C30.003 8.76998 30.2614 8.87448 30.5164 8.98526C31.5226 9.42258 32.7062 9.33876 33.549 8.63636C34.5906 7.7684 36.1222 7.83788 37.0808 8.79658L38.9168 10.6325C39.8308 11.5465 39.897 13.0068 39.0694 13.9998C38.3802 14.827 38.316 15.9949 38.7794 16.9668C38.98 17.3877 39.1632 17.8185 39.328 18.2583C39.7092 19.2753 40.5922 20.0538 41.6738 20.1522C42.9912 20.272 44 21.3766 44 22.6994V25.3006C44 26.6234 42.9912 27.728 41.6738 27.8478C40.5922 27.9462 39.7092 28.7246 39.328 29.7416C39.18 30.1364 39.0172 30.524 38.8404 30.9036C38.4106 31.826 38.4802 32.9274 39.1316 33.7092C39.924 34.66 39.8606 36.0582 38.9854 36.9334L36.9334 38.9854C36.0582 39.8606 34.66 39.924 33.7092 39.1316C32.9274 38.4802 31.826 38.4106 30.9036 38.8404C30.524 39.0172 30.1364 39.18 29.7416 39.328C28.7246 39.7092 27.9462 40.5922 27.8478 41.6738C27.728 42.9912 26.6234 44 25.3006 44H22.6994C21.3766 44 20.272 42.9912 20.1522 41.6738C20.0538 40.5922 19.2753 39.7092 18.2583 39.328C17.8185 39.1632 17.3877 38.98 16.9669 38.7794C15.9949 38.316 14.827 38.3802 13.9998 39.0694C13.0068 39.897 11.5465 39.8308 10.6324 38.9168L8.79658 37.0808C7.83786 36.1222 7.7684 34.5906 8.63636 33.549C9.33878 32.7062 9.42258 31.5226 8.98526 30.5164C8.87448 30.2614 8.77 30.0032 8.672 29.7416C8.29088 28.7246 7.40784 27.9462 6.32622 27.8478C5.00876 27.728 4 26.6234 4 25.3006V22.6994C4 21.3766 5.00876 20.272 6.32622 20.1522C7.40786 20.0538 8.29088 19.2754 8.67202 18.2583C8.7872 17.951 8.91136 17.648 9.04418 17.3498C9.5142 16.2943 9.43608 15.0451 8.69642 14.1575C7.79444 13.0752 7.86664 11.4836 8.8629 10.4873L10.4873 8.86292C11.4836 7.86664 13.0751 7.79444 14.1575 8.69644C15.0451 9.4361 16.2943 9.5142 17.3498 9.04418C17.648 8.91136 17.951 8.7872 18.2583 8.67202C19.2753 8.29088 20.0538 7.40786 20.1522 6.32622Z" stroke="white" stroke-width="2" stroke-linecap="round" stroke-linejoin="round"/>
<path d="M30 24C30 27.3138 27.3138 30 24 30C20.6862 30 18 27.3138 18 24C18 20.6862 20.6862 18 24 18C27.3138 18 30 20.6862 30 24Z" stroke="white" stroke-width="2" stroke-linecap="round" stroke-linejoin="round"/>
</svg>
