<?xml version="1.0" standalone="no"?>
<!DOCTYPE svg PUBLIC "-//W3C//DTD SVG 20010904//EN"
 "http://www.w3.org/TR/2001/REC-SVG-20010904/DTD/svg10.dtd">
<svg version="1.0" xmlns="http://www.w3.org/2000/svg"
 width="512.000000pt" height="512.000000pt" viewBox="0 0 512.000000 512.000000"
 preserveAspectRatio="xMidYMid meet">

<g transform="translate(0.000000,512.000000) scale(0.100000,-0.100000)"
fill="#D3D3D3" stroke="none">
<path d="M2321 5110 c-868 -84 -1644 -610 -2037 -1382 -139 -273 -221 -536
-266 -853 -20 -140 -17 -504 6 -660 39 -278 121 -541 247 -794 249 -502 647
-900 1150 -1150 815 -406 1779 -350 2539 147 297 194 579 482 771 788 74 116
184 342 234 478 51 138 110 376 131 531 23 157 26 521 6 660 -59 415 -191 769
-410 1099 -92 140 -185 254 -315 385 -399 403 -895 653 -1462 737 -122 18
-466 26 -594 14z m1215 -1301 c54 -25 200 -161 244 -225 41 -58 64 -145 56
-210 -12 -101 -35 -136 -207 -308 l-160 -161 -275 279 c-150 154 -274 282
-274 285 0 4 66 74 148 157 182 188 231 216 353 210 44 -2 83 -11 115 -27z
m-838 -1676 c-707 -705 -663 -667 -858 -731 -135 -45 -419 -122 -447 -122 -56
0 -113 56 -113 109 0 24 95 365 147 526 l35 110 656 658 657 657 282 -282 283
-283 -642 -642z"/>
</g>
</svg>